<svg id="movie-record" enable-background="new 0 0 300 300" height="512" viewBox="0 0 300 300" width="512" xmlns="http://www.w3.org/2000/svg"><g><circle cx="126" cy="136" fill="#d2ddff" r="86"/><g><path d="m68 166h188v100h-188z" fill="#edebdc"/><path d="m256 270h-188c-2.211 0-4-1.791-4-4v-100c0-2.209 1.789-4 4-4h188c2.211 0 4 1.791 4 4v100c0 2.209-1.789 4-4 4zm-184-8h180v-92h-180z" fill="#4c241d"/></g><g><path d="m160.512 142-6.857 24h20.828l6.857-24z" fill="#6b4f5b"/><path d="m174.484 170h-20.828c-1.254 0-2.438-.59-3.191-1.592-.758-1.002-1-2.301-.656-3.508l6.855-24c.492-1.717 2.062-2.9 3.848-2.9h20.828c1.254 0 2.438.59 3.191 1.592.758 1.002 1 2.301.656 3.508l-6.855 24c-.492 1.716-2.062 2.9-3.848 2.9zm-15.527-8h12.512l4.57-16h-12.512z" fill="#4c241d"/></g><path d="m153.656 170h-20.828c-1.254 0-2.438-.59-3.191-1.592-.758-1.002-1-2.301-.656-3.508l6.855-24c.492-1.717 2.062-2.9 3.848-2.9h20.828c1.254 0 2.438.59 3.191 1.592.758 1.002 1 2.301.656 3.508l-6.855 24c-.492 1.716-2.063 2.9-3.848 2.9zm-15.527-8h12.512l4.57-16h-12.512z" fill="#4c241d"/><g><path d="m118.857 142-6.857 24h20.828l6.857-24z" fill="#6b4f5b"/><path d="m132.828 170h-20.828c-1.254 0-2.438-.59-3.191-1.592-.758-1.002-1-2.301-.656-3.508l6.855-24c.492-1.717 2.062-2.9 3.848-2.9h20.828c1.254 0 2.438.59 3.191 1.592.758 1.002 1 2.301.656 3.508l-6.855 24c-.492 1.716-2.063 2.9-3.848 2.9zm-15.527-8h12.512l4.57-16h-12.512z" fill="#4c241d"/></g><path d="m112 170h-20.828c-1.254 0-2.438-.59-3.195-1.592-.754-1.002-.996-2.301-.652-3.508l6.859-24c.492-1.717 2.062-2.9 3.848-2.9h20.824c1.254 0 2.438.59 3.191 1.592.758 1.002 1 2.301.656 3.508l-6.855 24c-.493 1.716-2.063 2.9-3.848 2.9zm-15.523-8h12.508l4.57-16h-12.508z" fill="#4c241d"/><g><path d="m68 142v24h23.172l6.857-24z" fill="#6b4f5b"/><path d="m91.172 170h-23.172c-2.211 0-4-1.791-4-4v-24c0-2.209 1.789-4 4-4h30.031c1.254 0 2.438.59 3.195 1.592.754 1.002.996 2.301.652 3.508l-6.859 24c-.492 1.716-2.062 2.9-3.847 2.9zm-19.172-8h16.156l4.57-16h-20.726z" fill="#4c241d"/></g><path d="m236.965 170h-20.828c-1.254 0-2.438-.59-3.195-1.592-.754-1.002-.996-2.301-.652-3.508l6.859-24c.492-1.717 2.062-2.9 3.848-2.9h20.824c1.254 0 2.438.59 3.191 1.592.758 1.002 1 2.301.656 3.508l-6.855 24c-.493 1.716-2.063 2.9-3.848 2.9zm-15.524-8h12.508l4.57-16h-12.508z" fill="#4c241d"/><g><path d="m256 142h-12.178l-6.856 24h19.034z" fill="#6b4f5b"/><path d="m256 170h-19.035c-1.254 0-2.438-.59-3.191-1.592-.758-1.002-1-2.301-.656-3.508l6.855-24c.492-1.717 2.062-2.9 3.848-2.9h12.179c2.211 0 4 1.791 4 4v24c0 2.209-1.789 4-4 4zm-13.734-8h9.734v-16h-5.164z" fill="#4c241d"/></g><g><path d="m202.167 142-6.856 24h20.827l6.857-24z" fill="#6b4f5b"/><path d="m216.137 170h-20.824c-1.254 0-2.438-.59-3.191-1.592-.758-1.002-1-2.301-.656-3.508l6.855-24c.492-1.717 2.062-2.9 3.848-2.9h20.828c1.254 0 2.438.59 3.195 1.592.754 1.002.996 2.301.652 3.508l-6.859 24c-.493 1.716-2.063 2.9-3.848 2.9zm-15.524-8h12.508l4.57-16h-12.508z" fill="#4c241d"/></g><path d="m195.312 170h-20.828c-1.254 0-2.438-.59-3.191-1.592-.758-1.002-1-2.301-.656-3.508l6.855-24c.492-1.717 2.062-2.9 3.848-2.9h20.828c1.254 0 2.438.59 3.191 1.592.758 1.002 1 2.301.656 3.508l-6.855 24c-.492 1.716-2.062 2.9-3.848 2.9zm-15.527-8h12.512l4.57-16h-12.512z" fill="#4c241d"/><path d="m220 190h-120c-2.211 0-4-1.791-4-4s1.789-4 4-4h120c2.211 0 4 1.791 4 4s-1.789 4-4 4z" fill="#4c241d"/><path d="m220 214h-120c-2.211 0-4-1.791-4-4s1.789-4 4-4h120c2.211 0 4 1.791 4 4s-1.789 4-4 4z" fill="#4c241d"/><path d="m151.863 259.586c-2.211 0-4-1.791-4-4v-42.01c0-2.209 1.789-4 4-4s4 1.791 4 4v42.01c0 2.209-1.789 4-4 4z" fill="#4c241d"/><path d="m151.375 233.551h-51.582c-2.211 0-4-1.791-4-4s1.789-4 4-4h51.582c2.211 0 4 1.791 4 4s-1.789 4-4 4z" fill="#4c241d"/><path d="m151.375 254.379h-51.582c-2.211 0-4-1.791-4-4s1.789-4 4-4h51.582c2.211 0 4 1.791 4 4s-1.789 4-4 4z" fill="#4c241d"/><path d="m220 242h-68c-2.211 0-4-1.791-4-4s1.789-4 4-4h68c2.211 0 4 1.791 4 4s-1.789 4-4 4z" fill="#4c241d"/><circle cx="80" cy="154" fill="#edebdc" r="4"/><g><path d="m160.512 142-6.857 24h20.828l6.857-24z" fill="#6b4f5b"/><path d="m174.484 170h-20.828c-1.254 0-2.438-.59-3.191-1.592-.758-1.002-1-2.301-.656-3.508l6.855-24c.492-1.717 2.062-2.9 3.848-2.9h20.828c1.254 0 2.438.59 3.191 1.592.758 1.002 1 2.301.656 3.508l-6.855 24c-.492 1.716-2.062 2.9-3.848 2.9zm-15.527-8h12.512l4.57-16h-12.512z" fill="#4c241d"/></g><g><path d="m139.685 142-6.857 24h20.827l6.857-24z" fill="#fff"/><path d="m153.656 170h-20.828c-1.254 0-2.438-.59-3.191-1.592-.758-1.002-1-2.301-.656-3.508l6.855-24c.492-1.717 2.062-2.9 3.848-2.9h20.828c1.254 0 2.438.59 3.191 1.592.758 1.002 1 2.301.656 3.508l-6.855 24c-.492 1.716-2.063 2.9-3.848 2.9zm-15.527-8h12.512l4.57-16h-12.512z" fill="#4c241d"/></g><g><path d="m118.857 142-6.857 24h20.828l6.857-24z" fill="#6b4f5b"/><path d="m132.828 170h-20.828c-1.254 0-2.438-.59-3.191-1.592-.758-1.002-1-2.301-.656-3.508l6.855-24c.492-1.717 2.062-2.9 3.848-2.9h20.828c1.254 0 2.438.59 3.191 1.592.758 1.002 1 2.301.656 3.508l-6.855 24c-.492 1.716-2.063 2.9-3.848 2.9zm-15.527-8h12.512l4.57-16h-12.512z" fill="#4c241d"/></g><g><path d="m98.029 142-6.857 24h20.828l6.857-24z" fill="#fff"/><path d="m112 170h-20.828c-1.254 0-2.438-.59-3.195-1.592-.754-1.002-.996-2.301-.652-3.508l6.859-24c.492-1.717 2.062-2.9 3.848-2.9h20.824c1.254 0 2.438.59 3.191 1.592.758 1.002 1 2.301.656 3.508l-6.855 24c-.493 1.716-2.063 2.9-3.848 2.9zm-15.523-8h12.508l4.57-16h-12.508z" fill="#4c241d"/></g><g><path d="m68 142v24h23.172l6.857-24z" fill="#6b4f5b"/><path d="m91.172 170h-23.172c-2.211 0-4-1.791-4-4v-24c0-2.209 1.789-4 4-4h30.031c1.254 0 2.438.59 3.195 1.592.754 1.002.996 2.301.652 3.508l-6.859 24c-.492 1.716-2.062 2.9-3.847 2.9zm-19.172-8h16.156l4.57-16h-20.726z" fill="#4c241d"/></g><g><path d="m222.995 142-6.857 24h20.828l6.856-24z" fill="#fff"/><path d="m236.965 170h-20.828c-1.254 0-2.438-.59-3.195-1.592-.754-1.002-.996-2.301-.652-3.508l6.859-24c.492-1.717 2.062-2.9 3.848-2.9h20.824c1.254 0 2.438.59 3.191 1.592.758 1.002 1 2.301.656 3.508l-6.855 24c-.493 1.716-2.063 2.9-3.848 2.9zm-15.524-8h12.508l4.57-16h-12.508z" fill="#4c241d"/></g><g><path d="m256 142h-12.178l-6.856 24h19.034z" fill="#6b4f5b"/><path d="m256 170h-19.035c-1.254 0-2.438-.59-3.191-1.592-.758-1.002-1-2.301-.656-3.508l6.855-24c.492-1.717 2.062-2.9 3.848-2.9h12.179c2.211 0 4 1.791 4 4v24c0 2.209-1.789 4-4 4zm-13.734-8h9.734v-16h-5.164z" fill="#4c241d"/></g><g><path d="m202.167 142-6.856 24h20.827l6.857-24z" fill="#6b4f5b"/><path d="m216.137 170h-20.824c-1.254 0-2.438-.59-3.191-1.592-.758-1.002-1-2.301-.656-3.508l6.855-24c.492-1.717 2.062-2.9 3.848-2.9h20.828c1.254 0 2.438.59 3.195 1.592.754 1.002.996 2.301.652 3.508l-6.859 24c-.493 1.716-2.063 2.9-3.848 2.9zm-15.524-8h12.508l4.57-16h-12.508z" fill="#4c241d"/></g><g><path d="m181.34 142-6.857 24h20.828l6.856-24z" fill="#fff"/><path d="m195.312 170h-20.828c-1.254 0-2.438-.59-3.191-1.592-.758-1.002-1-2.301-.656-3.508l6.855-24c.492-1.717 2.062-2.9 3.848-2.9h20.828c1.254 0 2.438.59 3.191 1.592.758 1.002 1 2.301.656 3.508l-6.855 24c-.492 1.716-2.062 2.9-3.848 2.9zm-15.527-8h12.512l4.57-16h-12.512z" fill="#4c241d"/></g><circle cx="80" cy="154" fill="#edebdc" r="4"/><g><path d="m158.963 125.139-11.116-22.348 20.478-3.796 11.117 22.348z" fill="#6b4f5b"/><path d="m158.961 129.139c-1.496 0-2.898-.842-3.582-2.219l-11.113-22.348c-.559-1.123-.559-2.445.004-3.568.559-1.123 1.613-1.918 2.848-2.146l20.477-3.797c1.762-.32 3.52.551 4.312 2.152l11.117 22.35c.559 1.123.559 2.445-.004 3.568-.559 1.123-1.613 1.918-2.848 2.146l-20.48 3.795c-.247.045-.489.067-.731.067zm-5.172-23.381 7.41 14.898 12.301-2.279-7.414-14.9z" fill="#4c241d"/></g><g><path d="m138.484 128.935-11.116-22.348 20.479-3.796 11.116 22.348z" fill="#fff"/><path d="m138.484 132.936c-1.496 0-2.898-.842-3.582-2.219l-11.117-22.348c-.559-1.123-.559-2.445.004-3.568.559-1.123 1.613-1.918 2.848-2.146l20.48-3.797c1.773-.318 3.52.553 4.312 2.152l11.113 22.348c.559 1.123.559 2.445-.004 3.568-.559 1.123-1.613 1.918-2.848 2.146l-20.477 3.797c-.244.045-.486.067-.729.067zm-5.175-23.381 7.414 14.898 12.297-2.281-7.41-14.898z" fill="#4c241d"/></g><g><path d="m118.005 132.731-11.116-22.348 20.479-3.796 11.116 22.348z" fill="#6b4f5b"/><path d="m118.004 136.73c-1.496 0-2.898-.842-3.582-2.219l-11.113-22.348c-.559-1.123-.559-2.445.004-3.568.559-1.123 1.613-1.918 2.848-2.146l20.477-3.795c1.773-.316 3.52.553 4.312 2.152l11.117 22.348c.559 1.123.559 2.445-.004 3.568-.559 1.123-1.613 1.918-2.848 2.146l-20.48 3.795c-.247.046-.489.067-.731.067zm-5.172-23.38 7.41 14.898 12.297-2.279-7.41-14.898z" fill="#4c241d"/></g><g><path d="m97.526 136.527-11.116-22.348 20.479-3.796 11.116 22.348z" fill="#fff"/><path d="m97.527 140.527c-1.496 0-2.898-.842-3.582-2.219l-11.117-22.348c-.559-1.123-.559-2.445.004-3.568.559-1.123 1.613-1.918 2.848-2.146l20.48-3.797c1.77-.312 3.52.553 4.312 2.152l11.113 22.348c.559 1.123.559 2.445-.004 3.568-.559 1.123-1.613 1.918-2.848 2.146l-20.477 3.797c-.244.046-.486.067-.729.067zm-5.175-23.381 7.414 14.898 12.297-2.281-7.41-14.898z" fill="#4c241d"/></g><g><path d="m68 142-4.374-23.598 22.784-4.223 11.116 22.348z" fill="#6b4f5b"/><path d="m67.996 146c-1.891 0-3.57-1.346-3.93-3.271l-4.375-23.598c-.191-1.043.035-2.119.637-2.994s1.523-1.475 2.566-1.668l22.785-4.223c1.766-.324 3.52.553 4.312 2.152l11.117 22.348c.559 1.123.559 2.445-.004 3.568-.559 1.123-1.613 1.918-2.848 2.146l-29.527 5.473c-.245.046-.491.067-.733.067zm.293-24.395 2.914 15.732 20.379-3.777-7.41-14.898z" fill="#4c241d"/></g><g><path d="m220.399 113.752-11.116-22.349 20.479-3.796 11.116 22.349z" fill="#fff"/><path d="m220.398 117.752c-1.496 0-2.898-.842-3.582-2.219l-11.117-22.348c-.559-1.123-.559-2.445.004-3.568.559-1.123 1.613-1.918 2.848-2.146l20.48-3.797c1.77-.316 3.52.553 4.312 2.152l11.117 22.348c.559 1.123.559 2.445-.004 3.568-.559 1.123-1.613 1.918-2.848 2.146l-20.48 3.797c-.245.045-.487.067-.73.067zm-5.175-23.381 7.414 14.898 12.301-2.281-7.414-14.898z" fill="#4c241d"/></g><g><path d="m252.851 107.736-11.973 2.22-11.116-22.349 18.715-3.469z" fill="#6b4f5b"/><path d="m240.879 113.955c-1.496 0-2.898-.842-3.582-2.219l-11.117-22.347c-.559-1.123-.559-2.445.004-3.568.559-1.123 1.613-1.918 2.848-2.146l18.715-3.469c2.164-.391 4.258 1.033 4.664 3.205l4.375 23.598c.191 1.043-.035 2.119-.637 2.994s-1.523 1.475-2.566 1.668l-11.973 2.219c-.247.044-.489.065-.731.065zm-5.172-23.381 7.41 14.898 5.07-.941-2.914-15.73z" fill="#4c241d"/></g><g><path d="m199.92 117.548-11.116-22.349 20.479-3.796 11.116 22.349z" fill="#6b4f5b"/><path d="m199.918 121.547c-1.496 0-2.898-.842-3.582-2.219l-11.113-22.348c-.559-1.123-.559-2.445.004-3.568.559-1.123 1.613-1.918 2.848-2.146l20.477-3.795c1.77-.314 3.52.553 4.312 2.152l11.117 22.348c.559 1.123.559 2.445-.004 3.568-.559 1.123-1.613 1.918-2.848 2.146l-20.48 3.795c-.247.045-.489.067-.731.067zm-5.172-23.381 7.41 14.898 12.297-2.279-7.41-14.898z" fill="#4c241d"/></g><g><path d="m179.442 121.343-11.117-22.348 20.479-3.796 11.116 22.349z" fill="#fff"/><path d="m179.441 125.344c-1.496 0-2.898-.842-3.582-2.219l-11.117-22.35c-.559-1.123-.559-2.445.004-3.568.559-1.123 1.613-1.918 2.848-2.146l20.48-3.795c1.762-.324 3.52.553 4.312 2.152l11.113 22.348c.559 1.123.559 2.445-.004 3.568-.559 1.123-1.613 1.918-2.848 2.146l-20.477 3.797c-.244.045-.486.067-.729.067zm-5.175-23.383 7.414 14.9 12.297-2.281-7.41-14.898z" fill="#4c241d"/></g><circle cx="77.612" cy="128.014" fill="#edebdc" r="4"/><g fill="#4c241d"><path d="m160 50c-2.211 0-4-1.791-4-4v-12c0-2.209 1.789-4 4-4s4 1.791 4 4v12c0 2.209-1.789 4-4 4z"/><path d="m160 78c-2.211 0-4-1.791-4-4v-12c0-2.209 1.789-4 4-4s4 1.791 4 4v12c0 2.209-1.789 4-4 4z"/><path d="m152 58h-12c-2.211 0-4-1.791-4-4s1.789-4 4-4h12c2.211 0 4 1.791 4 4s-1.789 4-4 4z"/><path d="m180 58h-12c-2.211 0-4-1.791-4-4s1.789-4 4-4h12c2.211 0 4 1.791 4 4s-1.789 4-4 4z"/><path d="m62 66c-7.719 0-14-6.281-14-14s6.281-14 14-14 14 6.281 14 14-6.281 14-14 14zm0-20c-3.309 0-6 2.691-6 6s2.691 6 6 6 6-2.691 6-6-2.691-6-6-6z"/><circle cx="100" cy="50" r="4"/><circle cx="52" cy="94" r="4"/><circle cx="240" cy="50" r="4"/></g></g></svg>