<?xml version="1.0" encoding="UTF-8"?>
<!DOCTYPE svg PUBLIC "-//W3C//DTD SVG 1.1//EN" "http://www.w3.org/Graphics/SVG/1.1/DTD/svg11.dtd">
<!-- Creator: CorelDRAW 2020 (64 Bit) -->
<svg xmlns="http://www.w3.org/2000/svg" xml:space="preserve" width="31.6068mm" height="23.9664mm" version="1.1" style="shape-rendering:geometricPrecision; text-rendering:geometricPrecision; image-rendering:optimizeQuality; fill-rule:evenodd; clip-rule:evenodd"
viewBox="0 0 3160.68 2396.64"
 xmlns:xlink="http://www.w3.org/1999/xlink"
 xmlns:xodm="http://www.corel.com/coreldraw/odm/2003">
 <defs>
  <style type="text/css">
   <![CDATA[
    .fil0 {fill:#FEFEFE;fill-rule:nonzero}
   ]]>
  </style>
 </defs>
 <g id="Camada_x0020_1">
  <metadata id="CorelCorpID_0Corel-Layer"/>
  <g id="gmail.svg">
   <path class="fil0" d="M287.6 2400.59l2579.64 0c160.2,0 290.52,-130.34 290.52,-290.55l0 -1815.57c0,-160.21 -130.33,-290.54 -290.52,-290.54l-2579.64 0c-160.19,0 -290.52,130.34 -290.52,290.54l0 1815.57c0,160.21 130.33,290.55 290.52,290.55zm-101.31 -2106.12c0,-55.96 45.42,-101.33 101.32,-101.33l2579.63 0c55.92,0 101.32,45.37 101.32,101.33l0 1815.57c0,55.97 -45.41,101.34 -101.32,101.34l-2579.64 0c-55.91,0 -101.32,-45.37 -101.32,-101.34l0.01 -1815.57zm375.11 1783.1l-189.21 0 0 -1742.6 1181.6 767.12c13.9,9.02 33.34,9.03 47.28,-0.03l1181.59 -767.09 0 1742.59 -189.21 0.01 0 -1394.17 -889.37 577.39c-37.74,24.48 -81.54,37.41 -126.66,37.41 -45.12,0 -88.92,-12.93 -126.63,-37.4l-889.39 -577.4 0 1394.17z"/>
   <g>
   </g>
   <g>
   </g>
   <g>
   </g>
   <g>
   </g>
   <g>
   </g>
   <g>
   </g>
   <g>
   </g>
   <g>
   </g>
   <g>
   </g>
   <g>
   </g>
   <g>
   </g>
   <g>
   </g>
   <g>
   </g>
   <g>
   </g>
   <g>
   </g>
  </g>
 </g>
</svg>
