<?xml version="1.0" encoding="UTF-8"?>
<!DOCTYPE svg PUBLIC "-//W3C//DTD SVG 1.1//EN" "http://www.w3.org/Graphics/SVG/1.1/DTD/svg11.dtd">
<!-- Creator: CorelDRAW 2020 (64 Bit) -->
<svg xmlns="http://www.w3.org/2000/svg" xml:space="preserve" width="63.2282mm" height="63.2138mm" version="1.1" style="shape-rendering:geometricPrecision; text-rendering:geometricPrecision; image-rendering:optimizeQuality; fill-rule:evenodd; clip-rule:evenodd"
viewBox="0 0 6322.82 6321.38"
 xmlns:xlink="http://www.w3.org/1999/xlink"
 xmlns:xodm="http://www.corel.com/coreldraw/odm/2003"
 aria-hidden="true"
 focusable="false"
 data-prefix="fab"
 data-icon="instagram"
 role="img">
 <defs>
  <style type="text/css">
   <![CDATA[
    .fil0 {fill:#FEFEFE;fill-rule:nonzero}
   ]]>
  </style>
 </defs>
 <g id="Camada_x0020_1">
  <metadata id="CorelCorpID_0Corel-Layer"/>
  <g id="_1854777054624">
   <path class="fil0" d="M3156.98 1545.81c-897.11,0 -1620.72,723.62 -1620.72,1620.72 0,897.11 723.62,1620.73 1620.72,1620.73 897.11,0 1620.73,-723.62 1620.73,-1620.73 0,-897.1 -723.61,-1620.72 -1620.73,-1620.72zm0 2674.41c-579.73,0 -1053.68,-472.54 -1053.68,-1053.69 0,-581.14 472.54,-1053.68 1053.68,-1053.68 581.15,0 1053.69,472.54 1053.69,1053.68 0,581.15 -473.95,1053.69 -1053.69,1053.69zm2065.06 -2740.71c0,210.17 -169.27,378.03 -378.03,378.03 -210.17,0 -378.03,-169.27 -378.03,-378.03 0,-208.76 169.27,-378.03 378.03,-378.03 208.76,0 378.03,169.27 378.03,378.03zm1073.43 383.67c-23.98,-506.39 -139.65,-954.95 -510.62,-1324.51 -369.57,-369.57 -818.12,-485.23 -1324.51,-510.62 -521.91,-29.62 -2086.21,-29.62 -2608.11,0 -504.98,23.98 -953.54,139.65 -1324.51,509.21 -370.97,369.56 -485.23,818.12 -510.62,1324.51 -29.62,521.91 -29.62,2086.21 0,2608.11 23.98,506.39 139.65,954.95 510.62,1324.51 370.97,369.56 818.12,485.23 1324.51,510.62 521.91,29.62 2086.21,29.62 2608.11,0 506.39,-23.98 954.95,-139.65 1324.51,-510.62 369.57,-369.57 485.23,-818.12 510.62,-1324.51 29.62,-521.91 29.62,-2084.8 0,-2606.7zm-674.24 3166.7c-110.02,276.47 -323.02,489.46 -600.9,600.9 -416.11,165.04 -1403.51,126.95 -1863.35,126.95 -459.83,0 -1448.63,36.67 -1863.34,-126.95 -276.47,-110.02 -489.46,-323.02 -600.9,-600.9 -165.04,-416.11 -126.95,-1403.51 -126.95,-1863.35 0,-459.83 -36.67,-1448.63 126.95,-1863.34 110.02,-276.47 323.02,-489.46 600.9,-600.9 416.11,-165.04 1403.51,-126.95 1863.34,-126.95 459.84,0 1448.64,-36.67 1863.35,126.95 276.47,110.02 489.46,323.02 600.9,600.9 165.04,416.11 126.95,1403.51 126.95,1863.34 0,459.84 38.09,1448.64 -126.95,1863.35z"/>
  </g>
 </g>
</svg>
