<?xml version="1.0" encoding="UTF-8"?>
<!DOCTYPE svg PUBLIC "-//W3C//DTD SVG 1.1//EN" "http://www.w3.org/Graphics/SVG/1.1/DTD/svg11.dtd">
<!-- Creator: CorelDRAW 2020 (64 Bit) -->
<svg xmlns="http://www.w3.org/2000/svg" xml:space="preserve" width="31.6136mm" height="31.6068mm" version="1.1" style="shape-rendering:geometricPrecision; text-rendering:geometricPrecision; image-rendering:optimizeQuality; fill-rule:evenodd; clip-rule:evenodd"
viewBox="0 0 3161.36 3160.68"
 xmlns:xlink="http://www.w3.org/1999/xlink"
 xmlns:xodm="http://www.corel.com/coreldraw/odm/2003"
 aria-hidden="true"
 focusable="false"
 data-prefix="fab"
 data-icon="whatsapp"
 role="img">
 <defs>
  <style type="text/css">
   <![CDATA[
    .fil0 {fill:#FEFEFE;fill-rule:nonzero}
   ]]>
  </style>
 </defs>
 <g id="Camada_x0020_1">
  <metadata id="CorelCorpID_0Corel-Layer"/>
  <g id="whatsapp.svg">
   <path class="fil0" d="M2677.04 470.3c-293.48,-294.17 -684.31,-455.96 -1099.65,-455.96 -857.31,0 -1554.92,697.61 -1554.92,1554.91 0,273.87 71.44,541.42 207.32,777.47l-220.63 805.46 824.39 -216.43c226.93,123.98 482.58,189.11 743.14,189.11l0.7 0.01c856.6,0 1569.62,-697.62 1569.62,-1554.92 0,-415.34 -176.5,-805.47 -469.97,-1099.65zm-1099.65 2392.62c-232.54,0 -460.17,-62.34 -658.39,-180.01l-46.93 -28.01 -488.89 128.17 130.28 -476.98 -30.82 -49.04c-129.58,-205.92 -197.52,-443.36 -197.52,-687.8 0,-712.32 579.95,-1292.27 1292.96,-1292.27 345.31,0 669.6,134.48 913.35,378.93 243.74,244.44 393.63,568.73 392.93,914.04 0,713.02 -594.65,1292.96 -1306.97,1292.96l0 0.01zm708.82 -967.97c-38.53,-19.62 -229.74,-113.47 -265.46,-126.08 -35.72,-13.31 -61.64,-19.61 -87.55,19.61 -25.92,39.22 -100.16,126.08 -123.28,152.69 -22.41,25.91 -45.52,29.42 -84.05,9.81 -228.33,-114.17 -378.22,-203.82 -528.81,-462.28 -39.92,-68.64 39.92,-63.73 114.17,-212.22 12.6,-25.92 6.3,-48.33 -3.5,-67.94 -9.81,-19.62 -87.56,-210.83 -119.77,-288.57 -31.52,-75.65 -63.74,-65.14 -87.55,-66.54 -22.42,-1.4 -48.33,-1.4 -74.25,-1.4 -25.91,0 -67.94,9.81 -103.66,48.33 -35.72,39.22 -135.88,133.07 -135.88,324.29 0,191.21 139.38,376.12 158.3,402.04 19.61,25.91 273.86,418.14 663.99,586.94 246.54,106.47 343.2,115.57 466.47,97.36 74.95,-11.2 229.73,-93.85 261.96,-184.91 32.21,-91.05 32.21,-168.8 22.41,-184.91 -9.11,-17.51 -35.02,-27.32 -73.54,-46.23l0 0.01z"/>
  </g>
 </g>
</svg>
